<mxfile host="app.diagrams.net" modified="2024-05-20T08:04:09.809Z" agent="Mozilla/5.0 (Windows NT 10.0; Win64; x64) AppleWebKit/537.36 (KHTML, like Gecko) Chrome/124.0.0.0 Safari/537.36" etag="1vBH_36--Jcq4wtO579R" version="24.4.4" type="device">
  <diagram name="Page-1" id="_pn8-8nVnLTMFtLsGZ4U">
    <mxGraphModel dx="3686" dy="1863" grid="1" gridSize="10" guides="1" tooltips="1" connect="1" arrows="1" fold="1" page="1" pageScale="1" pageWidth="827" pageHeight="1169" math="0" shadow="0">
      <root>
        <mxCell id="0" />
        <mxCell id="1" parent="0" />
        <mxCell id="ycbItyd254pOQaHXiYR7-1" value="&lt;div style=&quot;text-align: start;&quot;&gt;&lt;b style=&quot;&quot;&gt;&lt;font style=&quot;font-size: 21px;&quot;&gt;שם&lt;/font&gt;&lt;/b&gt;&lt;/div&gt;" style="ellipse;whiteSpace=wrap;html=1;" vertex="1" parent="1">
          <mxGeometry x="140" y="160" width="120" height="80" as="geometry" />
        </mxCell>
        <mxCell id="ycbItyd254pOQaHXiYR7-2" value="&lt;u&gt;&lt;font style=&quot;font-size: 20px;&quot;&gt;&lt;b&gt;ISBN&lt;/b&gt;&lt;/font&gt;&lt;/u&gt;" style="ellipse;whiteSpace=wrap;html=1;" vertex="1" parent="1">
          <mxGeometry x="140" y="280" width="120" height="80" as="geometry" />
        </mxCell>
        <mxCell id="ycbItyd254pOQaHXiYR7-3" value="&lt;b&gt;&lt;font style=&quot;font-size: 20px;&quot;&gt;ז&#39;אנר&lt;/font&gt;&lt;/b&gt;" style="ellipse;whiteSpace=wrap;html=1;" vertex="1" parent="1">
          <mxGeometry x="140" y="400" width="120" height="80" as="geometry" />
        </mxCell>
        <mxCell id="ycbItyd254pOQaHXiYR7-4" value="&lt;b&gt;&lt;font style=&quot;font-size: 20px;&quot;&gt;שנה&lt;/font&gt;&lt;/b&gt;" style="ellipse;whiteSpace=wrap;html=1;" vertex="1" parent="1">
          <mxGeometry x="140" y="520" width="120" height="80" as="geometry" />
        </mxCell>
        <mxCell id="ycbItyd254pOQaHXiYR7-5" value="&lt;font style=&quot;font-size: 20px;&quot;&gt;&lt;b&gt;שם&lt;/b&gt;&lt;/font&gt;" style="ellipse;whiteSpace=wrap;html=1;" vertex="1" parent="1">
          <mxGeometry x="1060" y="160" width="120" height="80" as="geometry" />
        </mxCell>
        <mxCell id="ycbItyd254pOQaHXiYR7-6" value="&lt;span style=&quot;font-size: 20px;&quot;&gt;&lt;b&gt;&lt;u&gt;תז&lt;/u&gt;&lt;/b&gt;&lt;/span&gt;" style="ellipse;whiteSpace=wrap;html=1;" vertex="1" parent="1">
          <mxGeometry x="1060" y="280" width="120" height="80" as="geometry" />
        </mxCell>
        <mxCell id="ycbItyd254pOQaHXiYR7-7" value="&lt;span style=&quot;font-size: 20px;&quot;&gt;&lt;b&gt;כתובת&lt;/b&gt;&lt;/span&gt;" style="ellipse;whiteSpace=wrap;html=1;" vertex="1" parent="1">
          <mxGeometry x="1060" y="400" width="120" height="80" as="geometry" />
        </mxCell>
        <mxCell id="ycbItyd254pOQaHXiYR7-8" value="&lt;span style=&quot;font-size: 20px;&quot;&gt;&lt;b&gt;טלפון&lt;/b&gt;&lt;/span&gt;" style="ellipse;whiteSpace=wrap;html=1;" vertex="1" parent="1">
          <mxGeometry x="1060" y="520" width="120" height="80" as="geometry" />
        </mxCell>
        <mxCell id="ycbItyd254pOQaHXiYR7-9" value="&lt;b&gt;&lt;font style=&quot;font-size: 20px;&quot;&gt;ספר&lt;/font&gt;&lt;/b&gt;" style="rounded=0;whiteSpace=wrap;html=1;" vertex="1" parent="1">
          <mxGeometry x="320" y="340" width="160" height="80" as="geometry" />
        </mxCell>
        <mxCell id="ycbItyd254pOQaHXiYR7-10" value="&lt;b&gt;&lt;font style=&quot;font-size: 20px;&quot;&gt;מחבר&lt;/font&gt;&lt;/b&gt;" style="rounded=0;whiteSpace=wrap;html=1;" vertex="1" parent="1">
          <mxGeometry x="840" y="340" width="160" height="80" as="geometry" />
        </mxCell>
        <mxCell id="ycbItyd254pOQaHXiYR7-11" value="&lt;font style=&quot;font-size: 20px;&quot;&gt;&lt;b&gt;כתב את&lt;/b&gt;&lt;/font&gt;" style="rhombus;whiteSpace=wrap;html=1;" vertex="1" parent="1">
          <mxGeometry x="610" y="330" width="100" height="100" as="geometry" />
        </mxCell>
        <mxCell id="ycbItyd254pOQaHXiYR7-12" value="" style="endArrow=none;html=1;rounded=0;exitX=1;exitY=0.5;exitDx=0;exitDy=0;exitPerimeter=0;" edge="1" parent="1" source="ycbItyd254pOQaHXiYR7-1">
          <mxGeometry width="50" height="50" relative="1" as="geometry">
            <mxPoint x="-120" y="160" as="sourcePoint" />
            <mxPoint x="320" y="380" as="targetPoint" />
          </mxGeometry>
        </mxCell>
        <mxCell id="ycbItyd254pOQaHXiYR7-13" value="" style="endArrow=none;html=1;rounded=0;" edge="1" parent="1">
          <mxGeometry width="50" height="50" relative="1" as="geometry">
            <mxPoint x="260" y="320" as="sourcePoint" />
            <mxPoint x="320" y="380" as="targetPoint" />
          </mxGeometry>
        </mxCell>
        <mxCell id="ycbItyd254pOQaHXiYR7-14" value="" style="endArrow=none;html=1;rounded=0;" edge="1" parent="1">
          <mxGeometry width="50" height="50" relative="1" as="geometry">
            <mxPoint x="260" y="440" as="sourcePoint" />
            <mxPoint x="320" y="380" as="targetPoint" />
            <Array as="points" />
          </mxGeometry>
        </mxCell>
        <mxCell id="ycbItyd254pOQaHXiYR7-15" value="" style="endArrow=none;html=1;rounded=0;exitX=1;exitY=0.5;exitDx=0;exitDy=0;exitPerimeter=0;" edge="1" parent="1" source="ycbItyd254pOQaHXiYR7-4">
          <mxGeometry width="50" height="50" relative="1" as="geometry">
            <mxPoint x="280" y="510" as="sourcePoint" />
            <mxPoint x="320" y="380" as="targetPoint" />
            <Array as="points" />
          </mxGeometry>
        </mxCell>
        <mxCell id="ycbItyd254pOQaHXiYR7-16" value="" style="endArrow=none;html=1;rounded=0;exitX=1;exitY=0.5;exitDx=0;exitDy=0;exitPerimeter=0;" edge="1" parent="1" source="ycbItyd254pOQaHXiYR7-9">
          <mxGeometry width="50" height="50" relative="1" as="geometry">
            <mxPoint x="400" y="390" as="sourcePoint" />
            <mxPoint x="610" y="380" as="targetPoint" />
          </mxGeometry>
        </mxCell>
        <mxCell id="ycbItyd254pOQaHXiYR7-18" value="" style="endArrow=none;html=1;rounded=0;exitX=1;exitY=0.5;exitDx=0;exitDy=0;exitPerimeter=0;" edge="1" parent="1">
          <mxGeometry width="50" height="50" relative="1" as="geometry">
            <mxPoint x="710" y="379.82" as="sourcePoint" />
            <mxPoint x="840" y="379.82" as="targetPoint" />
          </mxGeometry>
        </mxCell>
        <mxCell id="ycbItyd254pOQaHXiYR7-19" value="" style="endArrow=none;html=1;rounded=0;exitX=1;exitY=0.5;exitDx=0;exitDy=0;exitPerimeter=0;entryX=0;entryY=0.5;entryDx=0;entryDy=0;entryPerimeter=0;" edge="1" parent="1" source="ycbItyd254pOQaHXiYR7-10" target="ycbItyd254pOQaHXiYR7-5">
          <mxGeometry width="50" height="50" relative="1" as="geometry">
            <mxPoint x="720" y="389.82" as="sourcePoint" />
            <mxPoint x="850" y="389.82" as="targetPoint" />
          </mxGeometry>
        </mxCell>
        <mxCell id="ycbItyd254pOQaHXiYR7-20" value="" style="endArrow=none;html=1;rounded=0;entryX=0;entryY=0.5;entryDx=0;entryDy=0;entryPerimeter=0;" edge="1" parent="1" target="ycbItyd254pOQaHXiYR7-6">
          <mxGeometry width="50" height="50" relative="1" as="geometry">
            <mxPoint x="1000" y="380" as="sourcePoint" />
            <mxPoint x="1070" y="210" as="targetPoint" />
          </mxGeometry>
        </mxCell>
        <mxCell id="ycbItyd254pOQaHXiYR7-21" value="" style="endArrow=none;html=1;rounded=0;entryX=0;entryY=0.375;entryDx=0;entryDy=0;entryPerimeter=0;" edge="1" parent="1" target="ycbItyd254pOQaHXiYR7-7">
          <mxGeometry width="50" height="50" relative="1" as="geometry">
            <mxPoint x="1000" y="380" as="sourcePoint" />
            <mxPoint x="1070" y="330" as="targetPoint" />
          </mxGeometry>
        </mxCell>
        <mxCell id="ycbItyd254pOQaHXiYR7-22" value="" style="endArrow=none;html=1;rounded=0;entryX=0;entryY=0.5;entryDx=0;entryDy=0;entryPerimeter=0;" edge="1" parent="1" target="ycbItyd254pOQaHXiYR7-8">
          <mxGeometry width="50" height="50" relative="1" as="geometry">
            <mxPoint x="1000" y="380" as="sourcePoint" />
            <mxPoint x="1070" y="440" as="targetPoint" />
          </mxGeometry>
        </mxCell>
      </root>
    </mxGraphModel>
  </diagram>
</mxfile>
